<?xml version="1.0" encoding="UTF-8"?><svg id="b" xmlns="http://www.w3.org/2000/svg" width="381.08" height="108.48" fill='white' viewBox="0 0 381.08 108.48"><g id="c"><g id="d"><path d="m244.46,3.61c-4.54,9.08-8.99,17.99-13.49,26.98h-27.04v74.32h-27.12V30.64h-27.09c-4.5-8.99-8.95-17.9-13.52-27.03h108.25Z"/><path d="m256.69,0c15.93,35.28,31.64,70.05,47.42,104.99h-30.52c-5.56-12.3-11.12-24.63-16.89-37.41-5.76,12.76-11.33,25.08-16.9,37.42h-30.52c15.77-34.93,31.48-69.71,47.42-105Z"/><path d="m47.38,40.91c5.79-12.83,11.34-25.11,16.86-37.34h30.52c-15.78,34.94-31.47,69.68-47.38,104.92C31.49,73.31,15.79,38.56,0,3.59h30.52c5.52,12.21,11.08,24.53,16.86,37.32Z"/><path d="m381.08,77.93v27.02h-70.99V3.57h26.99v74.36h43.99Z"/><path d="m101.53,104.92V3.99h26.9v100.93h-26.9Z"/></g></g></svg>